<?xml version="1.0" encoding="UTF-8"?><svg xmlns="http://www.w3.org/2000/svg" viewBox="0 0 426.14 395.86"><defs><style>.d{opacity:.44;}.d,.e,.f,.g,.h{stroke:#231f20;stroke-miterlimit:10;}.d,.g{fill:#58c09e;}.d,.g,.h{stroke-width:.75px;}.i{fill:#231f20;}.e{fill:#ffcd05;}.f{fill:#ffefa7;}.h{fill:#1fb78f;}</style></defs><g id="a"/><g id="b"><g id="c"><g><path class="g" d="M276.46,56.99c-.06,.06-.1,.15-.17,.21-.44-.02-.9-.02-1.34-.02-34.2,0-61.88,27.71-61.88,61.86,0-14.46-4.98-27.75-13.31-38.28-10.07-12.81-25.09-21.53-42.21-23.27h-.02c-.1,0-.21-.02-.31-.02C188.22,56.61,213.07,31.2,213.07,0c.1,31.64,25.8,57.28,57.51,57.28,1.99,0,3.93-.1,5.88-.29Z"/><path class="d" d="M213.13,186.8s-.06,.08-.06,.13v-.25l.06,.13Z"/><path class="g" d="M213.07,119.04V10.86l.02-1.97"/><path class="g" d="M213.07,119.04v67.64c-4.79-8.87-11.18-16.76-18.79-23.23-6.59-5.63-14.08-10.19-22.27-13.46-.02-.02-.04-.02-.08-.02-9.21-3.7-19.3-5.71-29.82-5.71-5.02,0-9.96,.46-14.75,1.36,20.4-8.83,34.7-29.15,34.7-52.82,0-13.44-4.63-25.78-12.37-35.58,1.95,.19,3.89,.29,5.88,.29,.57,0,1.11,0,1.65-.04,.1,0,.21,.02,.31,.02h.02c17.12,1.74,32.15,10.46,42.21,23.27,8.33,10.53,13.31,23.82,13.31,38.28Z"/><path class="g" d="M155.56,57.51c-1.99,0-3.93-.1-5.88-.29,.5-.04,1.03-.04,1.55-.04,2.03,0,4.02,.1,5.99,.29-.54,.04-1.09,.04-1.65,.04Z"/><path class="g" d="M298.18,145.1c-4.52-.8-9.15-1.19-13.88-1.19-6.74,0-13.29,.82-19.55,2.41-12.37,3.08-23.59,9.02-32.94,17.08-7.6,6.53-13.98,14.48-18.69,23.42l-.06-.13V119.04c0-34.15,27.69-61.86,61.88-61.86,.44,0,.9,0,1.34,.02-7.64,9.75-12.2,22.06-12.2,35.39,0,23.42,14,43.55,34.09,52.51Z"/><path class="h" d="M213.07,186.68v37.73h-37.06c.06-1.21,.08-2.43,.08-3.66,0-15.11-4.19-29.26-11.47-41.33-8.96-14.86-22.6-26.58-38.91-33.09-.02-.02-.04-.02-.08-.02,.57-.23,1.11-.46,1.67-.69,.02-.02,.04,0,.04,0,4.79-.9,9.73-1.36,14.75-1.36,10.53,0,20.61,2.01,29.82,5.71,.04,0,.06,0,.08,.02,8.18,3.26,15.68,7.83,22.27,13.46,7.62,6.47,14,14.36,18.79,23.23Z"/><path class="g" d="M213.13,186.8s-.06,.08-.06,.13v-.25l.06,.13Z"/><path class="h" d="M300.52,146.08s-.08,.02-.1,.04c-16.37,6.55-30.07,18.33-39.03,33.3-7.2,12.03-11.34,26.1-11.34,41.12,0,1.3,.02,2.6,.1,3.87h-37.08v-37.48s.02-.08,.06-.13c4.71-8.94,11.09-16.89,18.69-23.42,9.35-8.06,20.57-14,32.94-17.08,6.26-1.59,12.81-2.41,19.55-2.41,4.73,0,9.35,.4,13.88,1.19,.77,.36,1.55,.67,2.34,.98Z"/></g><g><path class="g" d="M17.85,284.86c.09,.02,.18,.02,.27,.04,.2,.39,.43,.79,.65,1.17,17.1,29.61,54.94,39.74,84.52,22.66-12.52,7.23-21.54,18.19-26.49,30.67-6.06,15.12-6.1,32.5,.95,48.19v.02c.06,.09,.1,.19,.15,.28-16.25-26.43-50.67-35.24-77.7-19.64,27.35-15.91,36.7-50.99,20.85-78.45-.99-1.72-2.06-3.36-3.19-4.95Z"/><path class="d" d="M161.93,274.8c.06,.02,.1,.01,.14,0l-.22,.13,.08-.12Z"/><path class="g" d="M103.28,308.74L9.6,362.82l-1.71,.97"/><path class="g" d="M103.28,308.74l58.58-33.82c-5.29,8.59-8.93,18.06-10.72,27.89-1.58,8.52-1.78,17.29-.52,26.01,0,.03,0,.05,.02,.08,1.4,9.83,4.7,19.57,9.96,28.68,2.51,4.35,5.38,8.4,8.56,12.1-17.85-13.26-42.6-15.47-63.09-3.64-11.64,6.72-20.02,16.9-24.63,28.5-.81-1.78-1.69-3.52-2.69-5.24-.28-.49-.55-.96-.86-1.41-.05-.09-.09-.19-.14-.28v-.02c-7.07-15.69-7.02-33.07-.96-48.19,4.95-12.48,13.97-23.43,26.49-30.67Z"/><path class="g" d="M78.75,389.31c.99,1.72,1.88,3.46,2.69,5.24-.29-.41-.55-.87-.81-1.32-1.02-1.76-1.92-3.53-2.74-5.33,.31,.45,.58,.92,.86,1.41Z"/><path class="g" d="M83.29,222c1.57,4.31,3.54,8.52,5.9,12.61,3.37,5.84,7.35,11.1,11.86,15.72,8.85,9.17,19.6,15.92,31.26,19.99,9.45,3.31,19.53,4.87,29.63,4.48l-.08,.12-58.58,33.82c-29.58,17.08-67.42,6.95-84.52-22.66-.22-.38-.45-.78-.65-1.17,12.27,1.74,25.2-.46,36.75-7.13,20.28-11.71,30.72-33.9,28.43-55.78Z"/><path class="h" d="M161.86,274.92l32.68-18.87,18.53,32.1c-1.08,.55-2.14,1.14-3.21,1.76-13.09,7.55-23.24,18.25-30.06,30.6-8.39,15.19-11.72,32.86-9.2,50.24,0,.03,0,.05,.02,.08-.48-.37-.95-.73-1.44-1.1-.03,0-.02-.04-.02-.04-3.18-3.7-6.04-7.75-8.56-12.1-5.26-9.12-8.57-18.86-9.96-28.68-.02-.04-.03-.05-.02-.08-1.26-8.72-1.06-17.49,.52-26.01,1.79-9.83,5.43-19.3,10.72-27.89Z"/><path class="g" d="M161.93,274.8c.06,.02,.1,.01,.14,0l-.22,.13,.08-.12Z"/><path class="h" d="M82.97,219.48s.06,.06,.09,.07c13.86,10.9,30.91,16.88,48.35,17.15,14.02,.22,28.27-3.23,41.29-10.74,1.12-.65,2.24-1.32,3.3-2.03l18.54,32.12-32.46,18.74s-.08,.02-.14,0c-10.09,.39-20.17-1.16-29.63-4.48-11.66-4.07-22.41-10.82-31.26-19.99-4.51-4.62-8.49-9.89-11.86-15.72-2.36-4.1-4.33-8.3-5.9-12.61-.08-.85-.19-1.68-.32-2.52Z"/></g><g><path class="g" d="M344.91,394.76c-.02-.09-.07-.16-.1-.25,.24-.37,.47-.77,.69-1.15,17.1-29.61,6.95-67.45-22.63-84.52,12.52,7.23,26.52,9.56,39.8,7.61,16.13-2.31,31.2-10.96,41.26-24.92v-.02c.06-.09,.13-.17,.19-.26-14.76,27.29-5.18,61.51,21.84,77.11-27.46-15.73-62.51-6.29-78.36,21.17-.99,1.72-1.88,3.46-2.69,5.24Z"/><path class="d" d="M264.15,275.01c-.02-.06-.04-.1-.08-.12l.22,.13h-.14Z"/><path class="g" d="M322.86,308.83l93.68,54.09,1.69,1"/><path class="g" d="M322.86,308.83l-58.58-33.82c10.08,.29,20.11-1.3,29.51-4.66,8.17-2.89,15.87-7.1,22.79-12.56,.03,0,.04-.03,.06-.06,7.81-6.12,14.6-13.85,19.86-22.97,2.51-4.35,4.58-8.86,6.2-13.46-2.55,22.09,7.9,44.63,28.4,56.46,11.64,6.72,24.64,8.89,37,7.08-1.14,1.59-2.2,3.22-3.19,4.95-.28,.49-.55,.96-.79,1.45-.05,.09-.12,.17-.18,.26v.02c-10.07,13.96-25.15,22.61-41.27,24.92-13.28,1.95-27.28-.38-39.8-7.61Z"/><path class="g" d="M404.9,289.79c.99-1.72,2.06-3.35,3.19-4.95-.21,.46-.48,.91-.74,1.36-1.02,1.76-2.1,3.43-3.25,5.04,.24-.49,.51-.96,.79-1.45Z"/><path class="g" d="M257.74,369.52c2.95-3.52,5.61-7.32,7.97-11.42,3.37-5.84,5.94-11.92,7.69-18.13,3.52-12.25,3.98-24.94,1.68-37.07-1.86-9.84-5.55-19.35-10.94-27.89h.14l58.58,33.83c29.58,17.08,39.73,54.91,22.63,84.52-.22,.38-.45,.78-.69,1.15-4.63-11.49-13-21.6-24.55-28.26-20.28-11.71-44.72-9.65-62.52,3.27Z"/><path class="h" d="M264.29,275.01l-32.68-18.87,18.53-32.1c1.02,.66,2.06,1.29,3.13,1.9,13.09,7.55,27.43,11,41.53,10.73,17.35-.33,34.32-6.28,48.11-17.15,.03,0,.04-.03,.06-.06-.08,.6-.16,1.19-.24,1.8,0,.03-.02,.04-.02,.04-1.62,4.6-3.69,9.11-6.2,13.46-5.26,9.12-12.05,16.85-19.86,22.97-.02,.04-.03,.05-.06,.06-6.92,5.45-14.62,9.66-22.79,12.56-9.41,3.36-19.43,4.95-29.51,4.66Z"/><path class="g" d="M264.15,275.01c-.02-.06-.04-.1-.08-.12l.22,.13h-.14Z"/><path class="h" d="M255.72,371.05s.02-.08,.02-.11c2.51-17.45-.84-35.21-9.32-50.45-6.82-12.25-16.93-22.87-29.94-30.39-1.12-.65-2.26-1.28-3.41-1.85l18.54-32.12,32.46,18.74s.06,.06,.08,.12c5.38,8.55,9.08,18.05,10.94,27.89,2.3,12.13,1.84,24.82-1.68,37.07-1.75,6.21-4.32,12.3-7.69,18.13-2.36,4.1-5.02,7.9-7.97,11.42-.7,.49-1.35,1.01-2.02,1.54Z"/></g><circle class="e" cx="213.07" cy="222" r="73.49"/><circle class="f" cx="213.07" cy="211.35" r="73.49"/><g><path class="i" d="M209.51,197.03c0,2.62-.43,5.07-1.29,7.36-.86,2.28-1.97,4.44-3.31,6.46-1.35,2.02-2.83,3.93-4.44,5.73-1.61,1.8-3.16,3.48-4.66,5.05-.6,.6-1.16,1.2-1.68,1.8-.53,.6-1.09,1.2-1.68,1.8-.38,.38-.51,.71-.39,1.01,.11,.3,.47,.45,1.07,.45h14.49c.52,0,.97,.19,1.35,.56,.37,.38,.56,.83,.56,1.35v7.64c0,.52-.19,.97-.56,1.35s-.83,.56-1.35,.56h-31c-.6,0-1.09-.19-1.46-.56-.38-.37-.56-.82-.56-1.35v-3.82c0-2.02,.34-3.91,1.01-5.67,.67-1.76,1.55-3.46,2.64-5.11s2.32-3.24,3.71-4.77c1.38-1.53,2.79-3.01,4.21-4.44,1.27-1.27,2.49-2.62,3.65-4.04,1.16-1.42,2.23-2.84,3.2-4.27s1.74-2.84,2.3-4.27,.84-2.77,.84-4.04c0-1.95-.39-3.5-1.18-4.66-.78-1.16-2-1.74-3.65-1.74-2.1,0-3.59,.88-4.49,2.64-.9,1.76-1.05,4.18-.45,7.25,.22,1.27-.22,2.17-1.35,2.7l-8.65,4.04c-.45,.22-.92,.26-1.4,.11-.49-.15-.84-.49-1.07-1.01-1.2-3.22-1.67-6.48-1.4-9.77,.26-3.29,1.25-6.29,2.98-8.99,1.72-2.62,3.93-4.68,6.63-6.18s5.65-2.25,8.87-2.25c2.62,0,5.05,.49,7.3,1.46,2.25,.97,4.19,2.32,5.84,4.04,1.65,1.72,2.96,3.74,3.93,6.06,.97,2.32,1.46,4.83,1.46,7.53Z"/><path class="i" d="M234.67,192.65c0-.82-.34-1.57-1.01-2.25-.67-.67-1.65-1.01-2.92-1.01s-2.42,.32-3.43,.95c-1.01,.64-1.81,1.25-2.41,1.85-.38,.38-.83,.62-1.35,.73-.53,.11-.97,.02-1.35-.28l-6.4-4.49c-.38-.3-.64-.71-.79-1.24-.15-.52-.04-1.01,.34-1.46,.52-.67,1.23-1.44,2.13-2.3,.9-.86,1.98-1.68,3.26-2.47,1.27-.78,2.77-1.44,4.49-1.96,1.72-.52,3.67-.79,5.84-.79,2.4,0,4.64,.36,6.74,1.07,2.09,.71,3.89,1.72,5.39,3.03,1.5,1.31,2.68,2.9,3.54,4.77,.86,1.87,1.29,3.97,1.29,6.29,0,1.27-.21,2.51-.62,3.71-.41,1.2-.99,2.43-1.74,3.71-.6,1.05-.49,1.99,.34,2.81,2.4,2.17,4.29,4.63,5.67,7.36,1.39,2.73,2.08,5.67,2.08,8.82,0,2.84-.54,5.46-1.63,7.86-1.09,2.4-2.56,4.48-4.44,6.23-1.87,1.76-4.08,3.13-6.63,4.1-2.55,.97-5.28,1.46-8.2,1.46-2.55,0-4.83-.34-6.85-1.01-2.02-.67-3.8-1.5-5.34-2.47s-2.81-1.97-3.82-2.98-1.82-1.89-2.42-2.64c-.37-.37-.5-.82-.39-1.35s.39-.94,.84-1.24l6.85-4.15c.97-.6,1.91-.45,2.81,.45,.75,.82,1.8,1.67,3.15,2.53,1.35,.86,2.99,1.29,4.94,1.29,2.7,0,4.66-.82,5.9-2.47,1.23-1.65,1.85-3.67,1.85-6.06s-.67-4.44-2.02-6.12c-1.35-1.69-2.84-2.53-4.49-2.53-1.2,0-2.28,.3-3.26,.9l-.45,.22c-.45,.3-.9,.36-1.35,.17-.45-.19-.78-.5-1.01-.95l-2.47-6.63c-.15-.52-.13-1.05,.06-1.57,.19-.52,.51-.9,.95-1.12l1.8-1.01c2.92-1.72,4.73-3.24,5.45-4.55,.71-1.31,1.07-2.38,1.07-3.2Z"/></g></g></g></svg>