<?xml version="1.0" encoding="UTF-8"?>
<svg xmlns="http://www.w3.org/2000/svg" viewBox="0 0 901 501">
  <defs>
    <style>
      .d {
        fill: #ffefa7;
      }

      .d,
      .e {
        stroke: #231f20;
        stroke-miterlimit: 10;
      }

      .e {
        fill: #58c09e;
      }
    </style>
  </defs>
  <g id="a" />
  <g id="b">
    <g id="c">
      <g>
        <rect class="e" x=".5" y=".5" width="200" height="500" />
        <rect class="e" x="700.5" y=".5" width="200" height="500" />
        <rect class="d" x="200.5" y=".5" width="100" height="100" />
        <rect class="d" x="300.5" y=".5" width="100" height="100" />
        <rect class="d" x="400.5" y=".5" width="100" height="100" />
        <rect class="d" x="500.5" y=".5" width="100" height="100" />
        <rect class="d" x="600.5" y=".5" width="100" height="100" />
        <rect class="d" x="200.5" y="100.5" width="100" height="100" />
        <rect class="d" x="300.5" y="100.5" width="100" height="100" />
        <rect class="d" x="400.5" y="100.5" width="100" height="100" />
        <rect class="d" x="500.5" y="100.5" width="100" height="100" />
        <rect class="d" x="600.5" y="100.5" width="100" height="100" />
        <rect class="d" x="200.5" y="200.5" width="100" height="100" />
        <rect class="d" x="600.5" y="200.5" width="100" height="100" />
        <rect class="d" x="200.5" y="400.5" width="100" height="100" />
        <rect class="d" x="300.5" y="400.5" width="100" height="100" />
        <rect class="d" x="400.5" y="400.5" width="100" height="100" />
        <rect class="d" x="500.5" y="400.5" width="100" height="100" />
        <rect class="d" x="600.5" y="400.5" width="100" height="100" />
        <rect class="d" x="300.5" y="200.5" width="100" height="100" />
        <rect class="d" x="400.5" y="200.5" width="100" height="100" />
        <rect class="d" x="500.5" y="200.5" width="100" height="100" />
        <rect class="d" x="200.5" y="300.5" width="100" height="100" />
        <rect class="d" x="300.5" y="300.5" width="100" height="100" />
        <rect class="d" x="400.5" y="300.5" width="100" height="100" />
        <rect class="d" x="500.5" y="300.5" width="100" height="100" />
        <rect class="d" x="600.5" y="300.5" width="100" height="100" />
      </g>
    </g>
  </g>
</svg>